<svg width="51" height="51" viewBox="0 0 51 51" fill="none" xmlns="http://www.w3.org/2000/svg">
<path d="M29.3136 47.2908L26.7864 49.849C25.7163 50.9322 23.9859 50.9322 22.9272 49.849L0.796875 27.459C-0.273214 26.3758 -0.273214 24.6242 0.796875 23.5525L22.9272 1.15096C23.9973 0.0677612 25.7277 0.0677612 26.7864 1.15096L29.3136 3.70917C30.3951 4.80389 30.3723 6.59003 29.2681 7.66171L15.5504 20.8906H48.2678C49.7819 20.8906 51 22.1236 51 23.6562V27.3437C51 28.8764 49.7819 30.1094 48.2678 30.1094H15.5504L29.2681 43.3383C30.3837 44.41 30.4065 46.1961 29.3136 47.2908Z" fill="white"/>
</svg>
